<?xml version="1.0" encoding="iso-8859-1"?>
<!-- Uploaded to: SVG Repo, www.svgrepo.com, Generator: SVG Repo Mixer Tools -->
<svg height="28px" width="28px" version="1.1" id="Layer_1" xmlns="http://www.w3.org/2000/svg" xmlns:xlink="http://www.w3.org/1999/xlink" 
	 viewBox="0 0 512 512" xml:space="preserve">
<path style="fill:#90724E;" d="M427.229,312.566l-7.613,20.919c-10.513,28.882-42.448,43.774-71.33,33.262l0,0
	c-28.882-10.513-43.774-42.448-33.262-71.331l7.613-20.919c9.208-25.301,34.856-39.863,60.489-36.02l84.133-231.15
	c2.103-5.777,8.489-8.755,14.266-6.653s8.755,8.489,6.653,14.266l-84.132,231.15C426.151,259.624,436.438,287.265,427.229,312.566z"
	/>
<path style="fill:#5A482F;" d="M406.311,304.952l-7.613,20.919c-6.308,17.329-25.469,26.264-42.798,19.957l0,0
	c-17.329-6.308-26.264-25.469-19.957-42.798l7.613-20.919c6.308-17.329,25.469-26.264,42.798-19.957l0,0
	C403.683,268.462,412.619,287.623,406.311,304.952z"/>
<path style="fill:#C6A871;" d="M512,311.652c0,6.147-4.886,11.13-10.912,11.13h-56.164l-78.365,182.479
	c-1.756,4.088-5.778,6.738-10.227,6.738H155.673c-4.45,0-8.471-2.65-10.227-6.738L67.079,322.783H10.912
	C4.886,322.783,0,317.799,0,311.652c0-6.147,4.886-11.13,10.912-11.13h490.174C507.114,300.522,512,305.505,512,311.652z"/>
<path style="fill:#612324;" d="M348.997,489.739H163.005l-71.7-166.957h329.391L348.997,489.739z"/>
<path style="fill:#DB6D53;" d="M386.3,402.878l-37.303,86.861H163.005l-29.789-69.366c11.933,1.68,24.003,2.54,36.149,2.54
	c57.431,0,113.241-19.233,158.364-54.368C345.786,382.642,365.384,394.119,386.3,402.878z"/>
<path style="fill:#B74941;" d="M371.181,438.083l-22.184,51.656H163.005l-10.858-25.282c5.697,0.378,11.418,0.573,17.154,0.573
	c57.431,0,113.241-19.233,158.364-54.368C341.319,421.321,355.862,430.463,371.181,438.083z"/>
<path style="fill:#CEB896;" d="M378.435,126.928c0,17.56-14.286,31.846-31.846,31.846H139.816c-5.287,0-9.588,4.3-9.588,9.586
	c0,5.287,4.301,9.588,9.588,9.588h94.707c17.56,0,31.848,14.286,31.848,31.846v57.336c0,6.147-4.983,11.13-11.13,11.13
	c-6.147,0-11.13-4.983-11.13-11.13v-57.336c0-5.286-4.301-9.586-9.587-9.586h-94.707c-17.562,0-31.849-14.287-31.849-31.849
	c0-17.56,14.287-31.846,31.849-31.846h206.772c5.286,0,9.586-4.3,9.586-9.586c0-5.286-4.3-9.586-9.586-9.586H207.278
	c-17.559,0-31.846-14.286-31.846-31.848c0-6.147,4.983-11.13,11.13-11.13s11.13,4.983,11.13,11.13c0,5.286,4.3,9.587,9.586,9.587
	h139.311C364.149,95.081,378.435,109.368,378.435,126.928z"/>
</svg>